<svg width="40" height="40" viewBox="0 0 40 40" fill="none" xmlns="http://www.w3.org/2000/svg">
<rect width="40" height="40" rx="20" fill="#0058C6" fill-opacity="0.06"/>
<path d="M29.0001 20C29.0001 20.1989 28.9211 20.3897 28.7804 20.5303C28.6398 20.671 28.449 20.75 28.2501 20.75H13.5604L19.0307 26.2194C19.1004 26.289 19.1557 26.3718 19.1934 26.4628C19.2311 26.5539 19.2505 26.6514 19.2505 26.75C19.2505 26.8485 19.2311 26.9461 19.1934 27.0372C19.1557 27.1282 19.1004 27.2109 19.0307 27.2806C18.961 27.3503 18.8783 27.4056 18.7873 27.4433C18.6962 27.481 18.5986 27.5004 18.5001 27.5004C18.4016 27.5004 18.304 27.481 18.2129 27.4433C18.1219 27.4056 18.0392 27.3503 17.9695 27.2806L11.2195 20.5306C11.1497 20.461 11.0944 20.3782 11.0567 20.2872C11.0189 20.1961 10.9995 20.0986 10.9995 20C10.9995 19.9014 11.0189 19.8038 11.0567 19.7128C11.0944 19.6217 11.1497 19.539 11.2195 19.4694L17.9695 12.7194C18.1102 12.5786 18.3011 12.4996 18.5001 12.4996C18.6991 12.4996 18.89 12.5786 19.0307 12.7194C19.1715 12.8601 19.2505 13.051 19.2505 13.25C19.2505 13.449 19.1715 13.6399 19.0307 13.7806L13.5604 19.25H28.2501C28.449 19.25 28.6398 19.329 28.7804 19.4697C28.9211 19.6103 29.0001 19.8011 29.0001 20Z" fill="#1D2933"/>
</svg>
