<svg width="24" height="24" viewBox="0 0 24 24" fill="none" xmlns="http://www.w3.org/2000/svg">
<path d="M12 5.33333L7.33333 0H0L9.33333 11.3333L17.014 8.16667L12 5.33333Z" fill="#55ACEE"/>
<path d="M16.6667 0L12 5.33333L15.5933 10.208L16.4113 9.21533L24 0H16.6667Z" fill="#3B88C3"/>
<path d="M15.47 10.684C15.5233 10.5393 15.5573 10.3853 15.5573 10.222C15.5573 9.86838 15.4168 9.52924 15.1668 9.2792C14.9167 9.02915 14.5776 8.88867 14.224 8.88867H9.77929C9.42567 8.88867 9.08653 9.02915 8.83648 9.2792C8.58643 9.52924 8.44596 9.86838 8.44596 10.222C8.44596 10.3853 8.47929 10.5393 8.53329 10.684C6.36129 11.9013 4.89063 14.222 4.89063 16.8887C4.88996 20.816 8.07396 24 12.0013 24C15.9286 24 19.1126 20.816 19.1126 16.8887C19.1126 14.222 17.642 11.9013 15.47 10.684Z" fill="#CCD6DD"/>
<path d="M14.6682 19.2807H12.3062C12.8915 18.458 13.9142 17.1247 14.3129 16.4133C14.6122 15.8273 14.7989 15.454 14.7989 14.7933C14.7989 13.4093 13.7522 12.2753 11.9695 12.2753C10.4862 12.2753 9.47619 13.4967 9.47619 13.4967C9.38886 13.5967 9.40152 13.746 9.48886 13.8213L10.2495 14.594C10.272 14.6177 10.299 14.6366 10.329 14.6495C10.3589 14.6624 10.3912 14.669 10.4239 14.669C10.4565 14.669 10.4888 14.6624 10.5188 14.6495C10.5487 14.6366 10.5758 14.6177 10.5982 14.594C10.8349 14.332 11.2962 13.9707 11.8069 13.9707C12.5049 13.9707 12.9042 14.394 12.9042 14.868C12.9042 15.2167 12.7422 15.566 12.5802 15.8153C11.8442 16.9367 9.99952 19.4427 9.27686 20.39V20.6393C9.27686 20.7647 9.37619 20.876 9.51352 20.876H14.6682C14.7302 20.8735 14.7889 20.8478 14.8328 20.8039C14.8767 20.7601 14.9024 20.7013 14.9049 20.6393V19.518C14.903 19.4557 14.8775 19.3965 14.8335 19.3524C14.7896 19.3083 14.7304 19.2827 14.6682 19.2807Z" fill="#121212"/>
</svg>
