<svg width="24" height="24" viewBox="0 0 24 24" fill="none" xmlns="http://www.w3.org/2000/svg">
<path d="M12 5.33333L7.33333 0H0L9.33333 11.3333L17.014 8.16667L12 5.33333Z" fill="#55ACEE"/>
<path d="M16.6667 0L12 5.33333L15.5933 10.208L16.4113 9.21533L24 0H16.6667Z" fill="#3B88C3"/>
<path d="M15.47 10.684C15.5233 10.5393 15.5573 10.3853 15.5573 10.222C15.5573 9.86838 15.4168 9.52924 15.1668 9.2792C14.9167 9.02915 14.5776 8.88867 14.224 8.88867H9.77929C9.42567 8.88867 9.08653 9.02915 8.83648 9.2792C8.58643 9.52924 8.44596 9.86838 8.44596 10.222C8.44596 10.3853 8.47929 10.5393 8.53329 10.684C6.36129 11.9013 4.89063 14.222 4.89063 16.8887C4.88996 20.816 8.07396 24 12.0013 24C15.9286 24 19.1126 20.816 19.1126 16.8887C19.1126 14.222 17.642 11.9013 15.47 10.684Z" fill="#FFAC33"/>
<path d="M12.936 12.4H11.7887L9.96871 13.8213C9.92627 13.875 9.90033 13.9398 9.89404 14.008V14.7933C9.89404 14.9173 9.99404 15.0293 10.1187 15.0293H11.3154V20.6386C11.3154 20.764 11.4154 20.8753 11.552 20.8753H12.936C13.06 20.8753 13.16 20.7633 13.16 20.6386V12.636C13.16 12.512 13.0607 12.4 12.936 12.4Z" fill="#442300"/>
</svg>
